# Material
mtllib Sentry.mtl
s off
# Object
o Sentry
# Vertices
v -0.314527 0.762049 0.972561
v 0.315299 0.762049 0.972561
v -0.314527 0.762049 0.123189
v 0.315299 0.762049 0.123189
v 0.315299 0.132223 0.346171
v -0.314527 0.132223 0.346171
v 0.315299 0.132223 0.123189
v -0.314527 0.132223 0.123189
v -0.314527 0.762049 -0.362734
v 0.315299 0.762049 -0.362734
v -0.314527 0.132223 -0.362734
v 0.315299 0.132223 -0.362734
v 0.010289 0.370570 0.452067
v 0.010289 0.477545 0.452067
v 0.056610 0.397314 0.452067
v 0.056610 0.450801 0.452067
v -0.036032 0.450801 0.452067
v -0.036032 0.397314 0.452067
v 0.010289 0.477545 1.273166
v 0.010289 0.370570 1.273166
v 0.056610 0.450801 1.273166
v 0.056610 0.397314 1.273166
v -0.036032 0.397314 1.273166
v -0.036032 0.450801 1.273166
v 0.010196 0.119955 -0.239350
v 0.010196 0.119955 0.244365
v 0.219652 0.119955 -0.118421
v 0.219652 0.119955 0.123437
v -0.199259 0.119955 0.123437
v -0.199259 0.119955 -0.118421
v 0.010196 -0.010127 0.244365
v 0.010196 -0.010127 -0.239350
v 0.219652 -0.010127 0.123437
v 0.219652 -0.010127 -0.118421
v -0.199259 -0.010127 -0.118421
v -0.199259 -0.010127 0.123437
v 0.315299 0.762049 0.972561
v -0.314527 0.762049 0.972561
v 0.315299 0.132223 0.346171
v -0.314527 0.132223 0.346171
# UV Coordinates
vt 0.250000 0.750000
vt 0.250000 0.500000
vt 0.000000 0.750000
vt 0.000000 0.500000
vt 0.000000 1.000000
vt 0.250000 1.000000
vt 0.500000 0.750000
vt 0.500000 1.000000
vt 0.750000 0.750000
vt 0.750000 1.000000
vt 0.500000 0.500000
vt 0.000000 0.000000
# Vertex Normals
vn 0.0000 1.0000 0.0000
vn 0.0000 -1.0000 0.0000
vn 1.0000 0.0000 0.0000
vn -1.0000 0.0000 0.0000
vn 0.0000 0.0000 -1.0000
vn 0.0000 0.0000 1.0000
vn 0.5000 0.8660 0.0000
vn 0.5000 -0.8660 0.0000
vn -0.5000 -0.8660 0.0000
vn -0.5000 0.8660 0.0000
vn 0.5000 0.0000 0.8660
vn 0.5000 0.0000 -0.8660
vn -0.5000 0.0000 -0.8660
vn -0.5000 0.0000 0.8660
vn 0.0000 0.0000 0.0000
vn 0.0000 -0.7052 0.7090
# Faces
usemtl Material0
f 3/3/1 1/1/1 2/2/1 4/4/1
f 7/2/2 5/4/2 6/3/2 8/1/2
f 4/3/3 2/1/3 5/2/3 7/4/3
f 8/2/4 6/4/4 1/3/4 3/1/4
f 11/3/5 9/5/5 10/6/5 12/1/5
f 15/9/5 13/7/5 14/8/5 16/10/5
f 17/8/5 14/10/5 13/9/5 18/7/5
f 21/10/6 19/9/6 20/7/6 22/8/6
f 23/7/6 20/8/6 19/10/6 24/9/6
f 16/2/7 14/1/7 19/7/7 21/11/7
f 15/2/3 16/1/3 21/7/3 22/11/3
f 13/2/8 15/1/8 22/11/8 20/7/8
f 18/2/9 13/1/9 20/7/9 23/11/9
f 17/1/4 18/2/4 23/11/4 24/7/4
f 14/2/10 17/1/10 24/7/10 19/11/10
f 10/5/1 9/6/1 3/1/1 4/3/1
f 3/5/4 9/6/4 11/1/4 8/3/4
f 7/1/3 12/3/3 10/5/3 4/6/3
f 11/6/2 12/1/2 7/3/2 8/5/2
f 27/10/1 25/9/1 26/7/1 28/8/1
f 29/7/1 26/8/1 25/10/1 30/9/1
f 33/9/2 31/7/2 32/8/2 34/10/2
f 35/10/2 32/8/2 31/9/2 36/7/2
f 28/8/11 26/10/11 31/9/11 33/7/11
f 27/8/3 28/10/3 33/9/3 34/7/3
f 25/8/12 27/10/12 34/9/12 32/7/12
f 30/8/13 25/10/13 32/9/13 35/7/13
f 29/8/4 30/10/4 35/9/4 36/7/4
f 26/8/14 29/10/14 36/9/14 31/7/14
f 38/12/15 37/12/15 2/12/15 1/12/15
f 2/12/15 37/12/15 39/12/15 5/12/15
f 6/12/15 40/12/15 38/12/15 1/12/15
f 39/12/15 40/12/15 6/12/15 5/12/15
f 2/6/16 1/8/16 6/7/16 5/1/16
